<svg width="43" height="35" viewBox="0 0 43 35" fill="none" xmlns="http://www.w3.org/2000/svg">
<path d="M4.5 0.5L8.75 9H15.125L10.875 0.5H15.125L19.375 9H25.75L21.5 0.5H25.75L30 9H36.375L32.125 0.5H38.5C39.6688 0.5 40.6696 0.9165 41.5026 1.7495C42.3356 2.5825 42.7514 3.58267 42.75 4.75V30.25C42.75 31.4188 42.3342 32.4196 41.5026 33.2526C40.671 34.0856 39.6702 34.5014 38.5 34.5H4.5C3.33125 34.5 2.33108 34.0842 1.4995 33.2526C0.667917 32.421 0.251417 31.4202 0.25 30.25V4.75C0.25 3.58125 0.6665 2.58108 1.4995 1.7495C2.3325 0.917916 3.33267 0.501417 4.5 0.5Z" fill="#E43E54"/>
</svg>