<svg width="130" height="131" viewBox="0 0 130 131" fill="none" xmlns="http://www.w3.org/2000/svg">
<ellipse cx="65" cy="65.5" rx="65" ry="65.5" fill="#E43E54"/>
<path d="M48.5 48.5L52.75 57H59.125L54.875 48.5H59.125L63.375 57H69.75L65.5 48.5H69.75L74 57H80.375L76.125 48.5H82.5C83.6688 48.5 84.6696 48.9165 85.5026 49.7495C86.3356 50.5825 86.7514 51.5827 86.75 52.75V78.25C86.75 79.4188 86.3342 80.4196 85.5026 81.2526C84.671 82.0856 83.6702 82.5014 82.5 82.5H48.5C47.3312 82.5 46.3311 82.0842 45.4995 81.2526C44.6679 80.421 44.2514 79.4202 44.25 78.25V52.75C44.25 51.5812 44.6665 50.5811 45.4995 49.7495C46.3325 48.9179 47.3327 48.5014 48.5 48.5Z" fill="#F8F8F8"/>
</svg>
