<svg width="50" height="49" viewBox="0 0 50 49" fill="none" xmlns="http://www.w3.org/2000/svg">
<path d="M49.3035 24.6518C49.3035 11.0332 38.2611 0 24.6518 0C11.0332 0 0 11.0332 0 24.6518C0 36.953 9.01176 47.1527 20.7999 49V31.7792H14.5399V24.6533H20.7999V19.2191C20.7999 13.0423 24.4746 9.63114 30.1075 9.63114C32.8053 9.63114 35.6295 10.1118 35.6295 10.1118V16.1777H32.5157C29.4589 16.1777 28.5036 18.0805 28.5036 20.0296V24.6518H35.3398L34.2413 31.7777H28.5036V48.9985C40.2825 47.1511 49.3035 36.9515 49.3035 24.6502V24.6518Z" fill="white"/>
</svg>
