<svg width="130" height="131" viewBox="0 0 130 131" fill="none" xmlns="http://www.w3.org/2000/svg">
<ellipse cx="65" cy="65.5" rx="65" ry="65.5" fill="#E43E54"/>
<path d="M66.0222 67.0222C63.8436 67.0222 61.9785 66.2465 60.4271 64.6951C58.8757 63.1437 58.1 61.2786 58.1 59.1C58.1 56.9214 58.8757 55.0564 60.4271 53.5049C61.9785 51.9535 63.8436 51.1778 66.0222 51.1778C68.2008 51.1778 70.0658 51.9535 71.6172 53.5049C73.1687 55.0564 73.9444 56.9214 73.9444 59.1C73.9444 61.2786 73.1687 63.1437 71.6172 64.6951C70.0658 66.2465 68.2008 67.0222 66.0222 67.0222ZM50.1777 82.8667V77.3211C50.1777 76.1988 50.4669 75.1676 51.0452 74.2275C51.6235 73.2874 52.3907 72.5691 53.3466 72.0727C55.3932 71.0494 57.4728 70.2822 59.5854 69.7712C61.698 69.2603 63.8436 69.0041 66.0222 69.0028C68.2008 69.0028 70.3464 69.2589 72.459 69.7712C74.5716 70.2836 76.6512 71.0507 78.6977 72.0727C79.655 72.5678 80.4228 73.2861 81.0011 74.2275C81.5794 75.1689 81.8679 76.2001 81.8666 77.3211V82.8667H50.1777Z" fill="#F8F8F8"/>
</svg>
