<svg width="49" height="49" viewBox="0 0 49 49" fill="none" xmlns="http://www.w3.org/2000/svg">
<path d="M24.5 0C17.8398 0 17.0097 0.0321603 14.4032 0.142424C11.786 0.271065 10.0156 0.676897 8.45356 1.28335C6.84248 1.9143 5.47031 2.752 4.11498 4.11498C2.75047 5.47031 1.90511 6.84248 1.28335 8.45356C0.676897 10.0156 0.271065 11.786 0.142424 14.4032C0.0245031 17.0113 0 17.8398 0 24.5C0 31.1602 0.0321603 31.9903 0.142424 34.5968C0.271065 37.2064 0.676897 38.9844 1.28335 40.5464C1.9143 42.1575 2.752 43.5297 4.11498 44.885C5.47031 46.2495 6.84248 47.0949 8.45356 47.7167C10.0156 48.3154 11.7936 48.7289 14.4032 48.8576C17.0112 48.9755 17.8398 49 24.5 49C31.1602 49 31.9903 48.9678 34.5968 48.8576C37.2064 48.7289 38.9844 48.3139 40.5464 47.7167C42.1575 47.0857 43.5297 46.248 44.885 44.885C46.2495 43.5297 47.0949 42.1652 47.7166 40.5464C48.3154 38.9844 48.7289 37.2064 48.8576 34.5968C48.9755 31.9887 49 31.1602 49 24.5C49 17.8398 48.9678 17.0097 48.8576 14.4032C48.7289 11.7936 48.3139 10.0064 47.7166 8.45356C47.0857 6.84248 46.248 5.47031 44.885 4.11498C43.5297 2.75047 42.1652 1.90511 40.5464 1.28335C38.9844 0.676897 37.2064 0.271065 34.5968 0.142424C31.9887 0.0245031 31.1602 0 24.5 0V0ZM24.5 4.41055C31.0408 4.41055 31.8218 4.44271 34.4069 4.55298C36.7913 4.66477 38.09 5.06295 38.9522 5.39986C40.1023 5.84551 40.9063 6.37233 41.7762 7.233C42.6292 8.08601 43.156 8.89921 43.6017 10.0493C43.9386 10.9115 44.3368 12.2102 44.4486 14.5946C44.5588 17.1797 44.591 17.9623 44.591 24.5015C44.591 31.0408 44.5588 31.8234 44.4394 34.4084C44.3107 36.7929 43.9125 38.0915 43.5772 38.9537C43.1131 40.1039 42.5955 40.9079 41.741 41.7777C40.8788 42.6307 40.0579 43.1576 38.917 43.6032C38.0655 43.9401 36.7485 44.3383 34.3548 44.4501C31.756 44.5604 30.9902 44.5925 24.4326 44.5925C17.875 44.5925 17.1108 44.5604 14.5089 44.4409C12.1244 44.3123 10.8089 43.9141 9.94671 43.5787C8.78282 43.1147 7.98494 42.597 7.13039 41.7425C6.26819 40.8803 5.71993 40.0594 5.29726 38.9185C4.95421 38.067 4.56216 36.75 4.43505 34.3564C4.34776 31.7881 4.30641 30.9918 4.30641 24.4648C4.30641 17.9408 4.34776 17.143 4.43505 14.5426C4.56216 12.1489 4.95421 10.8349 5.29726 9.9804C5.71993 8.81498 6.26972 8.01863 7.13039 7.15643C7.9834 6.30341 8.78282 5.75209 9.94671 5.32023C10.8089 4.98484 12.0923 4.58667 14.4859 4.46721C17.0848 4.3738 17.8505 4.34011 24.3989 4.34011L24.5 4.41055ZM24.5 11.9253C17.5457 11.9253 11.9223 17.5564 11.9223 24.5031C11.9223 31.4573 17.5534 37.0808 24.5 37.0808C31.4543 37.0808 37.0777 31.4497 37.0777 24.5031C37.0777 17.5488 31.4466 11.9253 24.5 11.9253V11.9253ZM24.5 32.6702C19.9853 32.6702 16.3328 29.0178 16.3328 24.5031C16.3328 19.9884 19.9853 16.3359 24.5 16.3359C29.0147 16.3359 32.6672 19.9884 32.6672 24.5031C32.6672 29.0178 29.0147 32.6702 24.5 32.6702V32.6702ZM40.525 11.423C40.525 13.0509 39.2003 14.3649 37.58 14.3649C35.9521 14.3649 34.6381 13.0494 34.6381 11.423C34.6381 9.80429 35.9613 8.48725 37.58 8.48725C39.1988 8.48725 40.525 9.80429 40.525 11.423V11.423Z" fill="white"/>
</svg>
