<svg width="32" height="32" viewBox="0 0 32 32" fill="none" xmlns="http://www.w3.org/2000/svg">
<path d="M16.0222 16.0222C13.8436 16.0222 11.9785 15.2465 10.4271 13.6951C8.87567 12.1437 8.09996 10.2786 8.09996 8.10002C8.09996 5.92141 8.87567 4.05638 10.4271 2.50495C11.9785 0.953513 13.8436 0.177795 16.0222 0.177795C18.2008 0.177795 20.0658 0.953513 21.6172 2.50495C23.1687 4.05638 23.9444 5.92141 23.9444 8.10002C23.9444 10.2786 23.1687 12.1437 21.6172 13.6951C20.0658 15.2465 18.2008 16.0222 16.0222 16.0222ZM0.177734 31.8667V26.3211C0.177734 25.1988 0.466896 24.1676 1.04522 23.2275C1.62354 22.2874 2.39067 21.5691 3.34662 21.0727C5.3932 20.0494 7.47278 19.2822 9.58537 18.7712C11.698 18.2603 13.8436 18.0041 16.0222 18.0028C18.2008 18.0028 20.3464 18.2589 22.459 18.7712C24.5716 19.2836 26.6512 20.0507 28.6977 21.0727C29.655 21.5678 30.4228 22.2861 31.0011 23.2275C31.5794 24.1689 31.8679 25.2001 31.8666 26.3211V31.8667H0.177734Z" fill="#F8F8F8"/>
</svg>
