<svg width="130" height="131" viewBox="0 0 130 131" fill="none" xmlns="http://www.w3.org/2000/svg">
<ellipse cx="65" cy="65.5" rx="65" ry="65.5" fill="#E43E54"/>
<path d="M84 88.5L68.25 72.75C67 73.75 65.5625 74.5417 63.9375 75.125C62.3125 75.7083 60.5833 76 58.75 76C54.2083 76 50.365 74.4267 47.22 71.28C44.075 68.1333 42.5017 64.29 42.5 59.75C42.5 55.2083 44.0733 51.365 47.22 48.22C50.3667 45.075 54.21 43.5017 58.75 43.5C63.2917 43.5 67.1358 45.0733 70.2825 48.22C73.4292 51.3667 75.0017 55.21 75 59.75C75 61.5833 74.7083 63.3125 74.125 64.9375C73.5417 66.5625 72.75 68 71.75 69.25L87.5 85L84 88.5ZM58.75 71C61.875 71 64.5317 69.9067 66.72 67.72C68.9083 65.5333 70.0017 62.8767 70 59.75C70 56.625 68.9067 53.9692 66.72 51.7825C64.5333 49.5958 61.8767 48.5017 58.75 48.5C55.625 48.5 52.9692 49.5942 50.7825 51.7825C48.5958 53.9708 47.5017 56.6267 47.5 59.75C47.5 62.875 48.5942 65.5317 50.7825 67.72C52.9708 69.9083 55.6267 71.0017 58.75 71Z" fill="white"/>
</svg>
