<svg width="34" height="34" viewBox="0 0 34 34" fill="none" xmlns="http://www.w3.org/2000/svg">
<path d="M33.0279 3.53304L32.9717 3.49795L25.8716 0L18.2082 10.2179L21.7339 14.9192C21.6284 16.6921 20.8765 18.3649 19.6206 19.6208C18.3647 20.8767 16.692 21.6285 14.919 21.734L10.2178 18.2083L0 25.8715L3.46884 32.9123L3.49803 32.9717L3.53321 33.0278C3.71832 33.3261 3.9767 33.572 4.28374 33.7422C4.59078 33.9123 4.93626 34.0011 5.28731 34H7.11938C10.6494 34 14.1449 33.3047 17.4062 31.9538C20.6675 30.6029 23.6308 28.6229 26.1269 26.1268C28.623 23.6307 30.603 20.6674 31.9538 17.4061C33.3047 14.1448 34 10.6493 34 7.1193V5.28714C34.0011 4.9361 33.9124 4.59062 33.7422 4.28358C33.572 3.97654 33.3261 3.71816 33.0279 3.53304V3.53304ZM31.3762 7.1193C31.3762 20.4946 20.4946 31.3762 7.11938 31.3762H5.63693L3.316 26.6646L10.2183 21.4879L14.0611 24.3699H14.4984C17.1157 24.3669 19.625 23.3259 21.4757 21.4752C23.3265 19.6244 24.3675 17.1151 24.3704 14.4978V14.0605L21.4884 10.2178L26.6646 3.31592L31.3762 5.63726V7.1193Z" fill="white"/>
</svg>
