<svg width="52" height="42" viewBox="0 0 52 42" fill="none" xmlns="http://www.w3.org/2000/svg">
<path d="M51.5203 4.99895C49.6217 5.8313 47.5892 6.40395 45.447 6.66365C47.6328 5.35221 49.3039 3.27779 50.1008 0.806542C48.0506 2.00022 45.7826 2.86484 43.371 3.3536C41.4482 1.29531 38.6995 0 35.6492 0C29.8017 0 25.0625 4.73763 25.0625 10.577C25.0625 11.4174 25.1641 12.224 25.3399 12.9886C16.5438 12.5772 8.74614 8.35094 3.53104 1.96635C2.61481 3.52136 2.09378 5.32802 2.09378 7.29437C2.09378 10.9738 3.96657 14.2 6.79754 16.097C5.0667 16.047 3.43748 15.5679 2.0099 14.7791V14.9065C2.0099 20.0377 5.65547 24.3156 10.4947 25.2899C9.61237 25.5238 8.67033 25.6593 7.71377 25.6593C7.03466 25.6593 6.3862 25.5932 5.73935 25.4738C7.1008 29.6743 10.998 32.7327 15.6437 32.8247C12.032 35.6556 7.45406 37.3429 2.52125 37.3429C1.68083 37.3429 0.84203 37.3026 0 37.201C4.70537 40.2013 10.2592 41.9563 16.2583 41.9563C35.7234 41.9563 46.36 25.8335 46.36 11.8707C46.36 11.4255 46.36 10.9722 46.3262 10.5173C48.4022 9.03811 50.1992 7.16371 51.6187 5.03928L51.5203 4.99895Z" fill="white"/>
</svg>
