<svg width="52" height="37" viewBox="0 0 52 37" fill="none" xmlns="http://www.w3.org/2000/svg">
<path d="M50.5411 5.56367C49.928 3.38695 48.2305 1.67979 46.0441 1.07631C42.0182 5.14546e-05 25.834 5.17148e-05 25.834 5.17148e-05C25.834 5.17148e-05 9.68046 -0.0257659 5.61262 1.07631C3.43752 1.6814 1.73197 3.38695 1.12526 5.56367C0.362037 9.68959 -0.017154 13.8655 0.000595398 18.0608C-0.0074725 22.2287 0.370105 26.3982 1.12526 30.4983C1.73197 32.675 3.43752 34.3822 5.61262 34.9954C9.6385 36.0716 25.834 36.0716 25.834 36.0716C25.834 36.0716 41.9779 36.0716 46.0441 34.9954C48.2305 34.3822 49.928 32.6766 50.5411 30.4983C51.2818 26.3982 51.6432 22.2287 51.6174 18.0608C51.6432 13.8655 51.2898 9.68959 50.5411 5.56367V5.56367ZM20.6641 25.785V10.3028L34.1359 18.0608L20.6641 25.785Z" fill="white"/>
</svg>
